<?xml version="1.0" encoding="utf-8"?>
<!-- Generator: Adobe Illustrator 27.5.0, SVG Export Plug-In . SVG Version: 6.00 Build 0)  -->
<svg version="1.1" id="Слой_1" xmlns="http://www.w3.org/2000/svg" xmlns:xlink="http://www.w3.org/1999/xlink" x="0px" y="0px"
	 viewBox="0 0 2825.559 2000" style="enable-background:new 0 0 2825.559 2000;" xml:space="preserve">
<g>
	<rect style="fill:#FFFF;" width="2825.559" height="2000"/>
	<linearGradient id="SVGID_1_" gradientUnits="userSpaceOnUse" x1="1561.3813" y1="1443.0178" x2="1520.1924" y2="696.4565">
		<stop  offset="0" style="stop-color:#D1D7E0"/>
		<stop  offset="1" style="stop-color:#EBEBFF"/>
	</linearGradient>
	<path style="opacity:0.95;fill:url(#SVGID_1_);" d="M1728.771,1023.929h-410.125c-32.402,0-58.67-26.267-58.67-58.669V555.134
		c0-32.401,26.268-58.669,58.67-58.669h410.125c32.402,0,58.67,26.268,58.67,58.669v410.125
		C1787.441,997.662,1761.174,1023.929,1728.771,1023.929z"/>
	<rect x="1401.605" y="903.843" style="fill:#96BFE6;" width="244.207" height="12.063"/>
	<rect x="1436.194" y="941.856" style="fill:#96BFE6;" width="175.029" height="12.064"/>
	
		<linearGradient id="SVGID_00000084500950305900210240000015794453003582557113_" gradientUnits="userSpaceOnUse" x1="2235.1606" y1="1651.1506" x2="2235.1606" y2="882.5548">
		<stop  offset="0" style="stop-color:#D1D7E0"/>
		<stop  offset="1" style="stop-color:#EBEBFF"/>
	</linearGradient>
	<path style="opacity:0.95;fill:url(#SVGID_00000084500950305900210240000015794453003582557113_);" d="M2526.992,1526.743h-583.663
		c-38.172,0-69.115-30.944-69.115-69.116V748.518c0-38.171,30.943-69.115,69.115-69.115h583.663
		c38.171,0,69.115,30.944,69.115,69.115v709.109C2596.107,1495.799,2565.163,1526.743,2526.992,1526.743z"/>
	<g>
		<rect x="2201.528" y="1179.279" style="fill:#4598E6;" width="57.255" height="10.604"/>
	</g>
	<g>
		<rect x="1984.156" y="1276.447" style="fill:#96BFE6;" width="333.162" height="20.53"/>
		<rect x="1984.156" y="1375.015" style="fill:#96BFE6;" width="269.412" height="20.53"/>
		<rect x="1984.156" y="1325.73" style="fill:#96BFE6;" width="157.94" height="20.53"/>
	</g>
	<g>
		<path style="fill:#4598E6;" d="M2404.479,763.902v10.369h61.052v57.298h10.368v-67.667H2404.479z M1989.892,831.569h10.369
			v-57.298h61.052v-10.369h-71.421V831.569z M2465.531,1127.227v57.318h-61.052v10.369h71.42v-67.688H2465.531z M2000.261,1127.227
			h-10.369v67.688h71.421v-10.369h-61.052V1127.227z"/>
	</g>
	<g>
		<g>
			<path style="fill:#4598E6;" d="M2443.577,1397.053c-33.667,0-61.057-27.391-61.057-61.057c0-33.667,27.39-61.057,61.057-61.057
				c33.666,0,61.057,27.39,61.057,61.057C2504.634,1369.662,2477.243,1397.053,2443.577,1397.053z M2443.577,1286.757
				c-27.151,0-49.24,22.088-49.24,49.239c0,27.15,22.089,49.239,49.24,49.239c27.15,0,49.239-22.089,49.239-49.239
				C2492.816,1308.845,2470.728,1286.757,2443.577,1286.757z"/>
		</g>
		<g>
			<polygon style="fill:#4598E6;" points="2439.683,1360.027 2411.944,1332.287 2420.3,1323.932 2439.683,1343.314 
				2466.853,1316.144 2475.21,1324.498 			"/>
		</g>
	</g>
	
		<linearGradient id="SVGID_00000150077165139558403440000012943849035703501488_" gradientUnits="userSpaceOnUse" x1="498.835" y1="1873.2251" x2="2480.2939" y2="1873.2251">
		<stop  offset="0.0052" style="stop-color:#1A2257"/>
		<stop  offset="1" style="stop-color:#5E60F2"/>
	</linearGradient>
	<path style="fill:url(#SVGID_00000150077165139558403440000012943849035703501488_);" d="M2480.294,1873.225
		c0,25.609-443.564,46.369-990.729,46.369c-547.164,0-990.729-20.76-990.729-46.369c0-25.608,443.565-46.368,990.729-46.368
		C2036.729,1826.856,2480.294,1847.616,2480.294,1873.225z"/>
	
		<linearGradient id="SVGID_00000017494601441710096580000000562717341198037177_" gradientUnits="userSpaceOnUse" x1="1523.709" y1="1176.5261" x2="1523.709" y2="614.5229">
		<stop  offset="0" style="stop-color:#D1D7E0"/>
		<stop  offset="1" style="stop-color:#EBEBFF"/>
	</linearGradient>
	
		<rect x="1345.944" y="516.187" style="opacity:0.95;fill:url(#SVGID_00000017494601441710096580000000562717341198037177_);" width="355.529" height="305.042"/>
	<g>
		<g>
			
				<linearGradient id="SVGID_00000035518763039069530740000001356614697629956269_" gradientUnits="userSpaceOnUse" x1="-3593.5498" y1="1498.3564" x2="-3466.1611" y2="1498.3564" gradientTransform="matrix(-1 0 0 1 -2645.543 0)">
				<stop  offset="0.0052" style="stop-color:#1A2257"/>
				<stop  offset="1" style="stop-color:#5E60F2"/>
			</linearGradient>
			<path style="fill:url(#SVGID_00000035518763039069530740000001356614697629956269_);" d="M823.435,1738.049
				c29.6-20.815,64.242-165.885,66.309-252.291c1.059-44.262,14.142-62.701,25.685-78.97c11.033-15.552,20.563-28.982,15.012-59.82
				c-10.607-58.934,17.282-84.374,17.566-84.623l-3.228-3.681c-1.242,1.087-30.288,27.325-19.155,89.172
				c5.187,28.814-3.363,40.864-14.186,56.12c-11.357,16.007-25.493,35.929-26.588,81.685c-2.218,92.73-37.635,229.701-64.23,248.404
				L823.435,1738.049z"/>
		</g>
		<g>
			
				<linearGradient id="SVGID_00000052076888321607684170000004352692220249995409_" gradientUnits="userSpaceOnUse" x1="-3494.5732" y1="1603.5096" x2="-3262.9854" y2="1603.5096" gradientTransform="matrix(-1 0 0 1 -2645.543 0)">
				<stop  offset="0.0052" style="stop-color:#1A2257"/>
				<stop  offset="1" style="stop-color:#5E60F2"/>
			</linearGradient>
			<path style="fill:url(#SVGID_00000052076888321607684170000004352692220249995409_);" d="M761.39,1695.736
				c-2.795-6.334-5.685-12.884-8.958-19.793c-16.909-35.694-31.888-41.572-56.704-51.311c-6.064-2.381-12.938-5.078-20.481-8.468
				c-35.549-15.976-28.666-39.52-22.593-60.29c0.849-2.906,1.696-5.802,2.43-8.67c3.127-12.216-2.88-18.345-11.972-27.622
				c-6.758-6.896-15.168-15.478-21.651-29.031c-7.096-14.833-3.479-22.786,0.804-26.846c9.02-8.548,29.813-6.973,49.445,3.746
				c6.1,3.33,11.12,8.587,16.435,14.153c12.516,13.105,28.091,29.415,67.485,29.6c22.462,0.105,34.766,3.206,41.139,10.367
				c7.232,8.125,5.868,20.291,3.981,37.128c-0.652,5.823-1.392,12.425-1.841,19.556c-2.68,42.547,22.437,73.241,22.685,73.54
				c15.006,17.869,33.493,54.94,25.514,77.759c-3.345,9.565-10.825,15.585-22.233,17.892c-4.545,0.919-8.697,1.356-12.516,1.356
				C784.805,1748.803,774.721,1725.952,761.39,1695.736z M669.362,1471.748c-17.531-9.57-36.331-11.502-43.731-4.488
				c-5.623,5.328-2.971,14.459,0.244,21.179c6.133,12.821,13.889,20.735,20.731,27.718c9.515,9.708,17.028,17.375,13.219,32.263
				c-0.748,2.92-1.609,5.87-2.475,8.829c-6.048,20.686-11.759,40.223,19.901,54.451c7.436,3.342,14.25,6.017,20.264,8.376
				c25.05,9.831,41.6,16.325,59.34,53.772c3.301,6.969,6.204,13.549,9.012,19.913c15.313,34.706,24.556,55.656,58.035,48.887
				c9.597-1.939,15.849-6.888,18.583-14.708c7.031-20.109-9.793-55.314-24.647-73.001c-1.088-1.303-26.624-32.435-23.817-76.99
				c0.456-7.25,1.203-13.914,1.861-19.793c1.746-15.578,3.008-26.834-2.772-33.328c-5.284-5.938-16.852-8.63-37.504-8.727
				c-41.476-0.194-57.848-17.339-71.004-31.114C679.34,1479.475,674.794,1474.714,669.362,1471.748L669.362,1471.748z"/>
		</g>
		<g>
			
				<linearGradient id="SVGID_00000041982823294759616700000002285335718147859338_" gradientUnits="userSpaceOnUse" x1="-3474.7764" y1="1637.1875" x2="-3300.9541" y2="1637.1875" gradientTransform="matrix(-1 0 0 1 -2645.543 0)">
				<stop  offset="0.0052" style="stop-color:#1A2257"/>
				<stop  offset="1" style="stop-color:#5E60F2"/>
			</linearGradient>
			<path style="fill:url(#SVGID_00000041982823294759616700000002285335718147859338_);" d="M824.346,1777.064l4.888-0.258
				c-0.24-4.592-6.407-112.854-49.876-144.539c-47.689-34.762-62.725-72.117-69.886-97.193
				c-8.438-29.546-51.385-37.442-53.209-37.764l-0.852,4.82c0.417,0.074,41.759,7.693,49.354,34.289
				c7.359,25.77,22.8,64.152,71.709,99.803C818.078,1666.55,824.287,1775.963,824.346,1777.064z"/>
		</g>
		<g>
			
				<linearGradient id="SVGID_00000016077032779336112850000007793298376469545099_" gradientUnits="userSpaceOnUse" x1="-3684.8906" y1="1460.6116" x2="-3423.8665" y2="1460.6116" gradientTransform="matrix(-1 0 0 1 -2645.543 0)">
				<stop  offset="0.0052" style="stop-color:#1A2257"/>
				<stop  offset="1" style="stop-color:#5E60F2"/>
			</linearGradient>
			<path style="fill:url(#SVGID_00000016077032779336112850000007793298376469545099_);" d="M816.071,1801.412
				c-10.229-5.094-9.857-25.574-9.296-56.574c0.709-39.172,1.68-92.819-18.826-142.165c-21.783-52.42-2.356-67.741,16.433-82.558
				c21.044-16.594,40.92-32.268,2.773-103.016c-17.52-32.492-23.083-54.471-17.506-69.166c5.513-14.523,20.979-20.184,37.354-26.177
				c28.264-10.345,60.298-22.068,56.159-81.888c-1.269-18.338,0.888-29.615,6.785-35.49c6.409-6.381,15.85-5.689,26.781-4.89
				c16.518,1.208,35.227,2.577,51.525-18.688c1.694-5.313,17.277-52.743,35.917-60.863c3.915-1.705,7.751-1.684,11.403,0.063l0,0
				c12.868,6.155,20.336,13.454,22.829,22.316c4.339,15.413-6.951,32.798-20.025,52.928
				c-20.544,31.634-43.831,67.488-19.679,110.155c31.933,56.415,15.065,76.158-8.277,103.483
				c-13.374,15.654-28.531,33.397-38.664,62.338c-8.15,23.275,5.752,45.468,19.196,66.93c16.865,26.922,34.304,54.76-2.413,78.916
				c-60.706,39.939-120.658,170.311-121.257,171.623l-0.247,0.542l-0.47,0.368c-11.184,8.766-19.325,12.949-25.456,12.949
				C819.257,1802.549,817.587,1802.166,816.071,1801.412z M965.851,1612.977c32.718-21.524,17.998-45.021,0.955-72.227
				c-13.404-21.397-28.597-45.65-19.669-71.147c10.436-29.805,25.91-47.919,39.563-63.899c22.872-26.773,37.982-44.461,7.739-97.892
				c-25.615-45.253-0.414-84.056,19.834-115.234c12.426-19.132,23.156-35.654,19.419-48.935c-2.09-7.426-8.706-13.715-20.229-19.226
				l0,0c-2.346-1.122-4.746-1.119-7.336,0.009c-17.294,7.532-33.174,57.743-33.332,58.25l-0.127,0.406l-0.257,0.34
				c-17.964,23.737-39.074,22.193-56.04,20.95c-10.138-0.743-18.144-1.329-22.969,3.476c-4.752,4.733-6.504,15.097-5.356,31.684
				c4.393,63.489-30.957,76.428-59.361,86.822c-15.957,5.841-29.74,10.886-34.458,23.316c-5.035,13.27,0.441,33.958,17.237,65.107
				c40.099,74.366,17.655,92.066-4.05,109.183c-18.156,14.317-35.305,27.841-14.944,76.834
				c20.899,50.29,19.917,104.528,19.2,144.132c-0.49,27.035-0.877,48.389,6.584,52.104c4.365,2.175,12.717-1.498,24.827-10.918
				C847.935,1775.562,905.354,1652.777,965.851,1612.977z"/>
		</g>
		
			<linearGradient id="SVGID_00000023982172761424653360000003049826263384382861_" gradientUnits="userSpaceOnUse" x1="883.9312" y1="1745.5404" x2="731.9547" y2="1289.6094">
			<stop  offset="0.0052" style="stop-color:#1A2257"/>
			<stop  offset="1" style="stop-color:#5E60F2"/>
		</linearGradient>
		<path style="fill:url(#SVGID_00000023982172761424653360000003049826263384382861_);" d="M720.251,1233.173
			c30.897-10.593,24.478,48.955,37.531,93.015c13.055,44.06,145.233,19.22,89.751,129.55
			c-55.481,110.329,70.169,36.897,32.637,133.175c-37.532,96.278-3.264,199.249-44.06,173.057
			c-40.795-26.191-22.919-147.432-65.347-161.838c-42.428-14.406-49.351-31.208-7.343-70.372s-110.075-78.045-72.543-157.126
			C728.41,1293.551,684.555,1245.412,720.251,1233.173z"/>
		<g>
			<path style="fill:#FFFFFF;" d="M821.89,1755.644c3.886-16.48,37.067-161.526,6.106-179.06
				c-27.287-15.453-26.615-75.557-22.357-132.313c3.768-50.241-60.757-73.724-63.506-74.698l-1.638,4.613
				c0.639,0.227,63.749,23.215,60.261,69.719c-4.371,58.287-4.84,120.139,24.829,136.939c23.507,13.312,1.864,129.884-8.459,173.677
				L821.89,1755.644z"/>
		</g>
		
			<linearGradient id="SVGID_00000078028732501388908030000002930393578191601320_" gradientUnits="userSpaceOnUse" x1="766.3475" y1="2043.3003" x2="842.3361" y2="1715.728">
			<stop  offset="0" style="stop-color:#C9C4C1"/>
			<stop  offset="1" style="stop-color:#FFF6DE"/>
		</linearGradient>
		<polygon style="fill:url(#SVGID_00000078028732501388908030000002930393578191601320_);" points="938.458,1703.996 
			894.347,1871.35 795.768,1871.35 751.657,1703.996 		"/>
		
			<linearGradient id="SVGID_00000005253319506247396110000008813602935280991880_" gradientUnits="userSpaceOnUse" x1="732.1234" y1="1787.6729" x2="918.9242" y2="1787.6729" gradientTransform="matrix(1 0 0 1 19.5338 0)">
			<stop  offset="0" style="stop-color:#C9C4C1"/>
			<stop  offset="1" style="stop-color:#FFF6DE"/>
		</linearGradient>
		<path style="fill:url(#SVGID_00000005253319506247396110000008813602935280991880_);" d="M938.458,1703.996
			c0,0-97.109,18.233-97.109,167.354h-45.58l-44.111-167.354H938.458z"/>
	</g>
	
		<linearGradient id="SVGID_00000167384184832197309700000005688097033525529757_" gradientUnits="userSpaceOnUse" x1="2033.0171" y1="701.3976" x2="2033.0171" y2="384.814">
		<stop  offset="0" style="stop-color:#D1D7E0"/>
		<stop  offset="1" style="stop-color:#EBEBFF"/>
	</linearGradient>
	<path style="opacity:0.95;fill:url(#SVGID_00000167384184832197309700000005688097033525529757_);" d="M2178.548,650.154h-291.062
		c-26.639,0-48.233-21.595-48.233-48.233V349.369c0-26.639,21.595-48.233,48.233-48.233h291.062
		c26.639,0,48.233,21.595,48.233,48.233v252.552C2226.781,628.56,2205.187,650.154,2178.548,650.154z"/>
	<g>
		<rect x="2016.179" y="584.144" style="fill:#4598E6;" width="30.734" height="5.693"/>
	</g>
	<g>
		<path style="fill:#4598E6;" d="M2125.127,364.297v5.566h32.773v30.759h5.566v-36.325H2125.127z M1902.567,400.622h5.565v-30.759
			h32.774v-5.566h-38.34V400.622z M2157.9,559.337v30.77h-32.773v5.566h38.34v-36.336H2157.9z M1908.133,559.337h-5.565v36.336
			h38.34v-5.566h-32.774V559.337z"/>
	</g>
	<g>
		<rect x="1503.183" y="844.906" style="fill:#4598E6;" width="41.053" height="7.604"/>
	</g>
	<g>
		<path style="fill:#4598E6;" d="M1646.74,551.257v7.435h43.775v41.085h7.435v-48.52H1646.74z M1349.467,599.776h7.435v-41.085
			h43.776v-7.435h-51.211V599.776z M1690.516,811.772v41.1h-43.775v7.435h51.21v-48.535H1690.516z M1356.901,811.772h-7.435v48.535
			h51.211v-7.435h-43.776V811.772z"/>
	</g>
	<g>
		<g>
			<path style="fill:#E65353;" d="M2453.165,1084.582h-68.484c-4.506-32.79-10.044-70.222-10.044-70.222s-2.769,30.89-6.135,70.222
				h-274.046c-2.498-35.368-5.511-61.834-6.596-62.377c-1.575-0.787-11.347,30.592-19.463,62.377h-74.185
				c19.082-82.192,54.668-214.058,75.243-221.957c29.288-11.265,148.723-48.072,148.723-48.072h68.158
				c0,0,121.117,34.554,132.382,72.122C2427.677,916.615,2447.438,1015.338,2453.165,1084.582z"/>
		</g>
		<g>
			<path style="fill:#EEA987;" d="M2255.392,593.441c0,0,63.643,10.026,53.952,109.602c-9.69,99.576-65.861,91.414-69.616,91.313
				c-3.754-0.101-56.389,1.815-60.492-119.761C2179.235,674.596,2177.444,584.695,2255.392,593.441z"/>
		</g>
		<g>
			<path style="fill:#EEA987;" d="M2285.099,765.027c0,0-1.744,40.956,2.219,49.822s-52.519,37.346-86.969,5.609
				c0,0,8.32-44.511,6.007-60.286C2204.042,744.396,2285.099,765.027,2285.099,765.027z"/>
		</g>
		<g>
			<path style="fill:#EEA987;" d="M2310.328,674.916c0,0,6.97-7.444,9.525,0.092c2.556,7.536-10.812,41.209-9.938,42.72
				c0,0-1.272,2.923-2.945,1.314C2305.297,717.432,2310.328,674.916,2310.328,674.916z"/>
		</g>
		<g>
			<path style="fill:#EEA987;" d="M2179.954,673.657c0,0-6.824-7.578-9.525-0.092c-2.701,7.485,10.014,41.41,9.111,42.903
				c0,0,1.216,2.947,2.92,1.371C2184.163,716.262,2179.954,673.657,2179.954,673.657z"/>
		</g>
		<g>
			<path style="fill:#D98B52;" d="M2310.298,690.189l-9.111,12.181c0,0,0.258-26.705-1.204-30.892
				c-1.462-4.187-3.698-16.979-4.921-19.995c-1.223-3.017-54.653-17.989-101.848,4.372c0,0,2.075,19.202-2.448,20.911
				c-4.523,1.709-2.306,31.275-2.306,31.275l-7.491-8.453c0,0-11.467-76.609-8.636-84.594c2.832-7.985,11.855-55.991,108.681-27.493
				c0,0,30.185-6.394,36.243,14.447C2323.315,622.788,2310.298,690.189,2310.298,690.189z"/>
		</g>
		<g>
			<path style="fill:#EEA987;" d="M2287.317,814.85c0,0,14.358,3.064-45.73,60.648c0,0-42.618-47.144-41.238-55.039
				C2201.729,812.563,2287.317,814.85,2287.317,814.85z"/>
		</g>
		<g>
			<polygon style="fill:#B84343;" points="2241.587,875.498 2257.986,903.54 2306.629,820.947 2285.564,806.254 			"/>
		</g>
		<g>
			<polygon style="fill:#B84343;" points="2241.587,875.498 2201.793,812.179 2179.232,826.677 2219.681,903.54 			"/>
		</g>
		<g>
			<path style="fill:#B84343;" d="M2229.253,1050.924c0.489,9.338,0.706,20.792,0.733,33.658h-2.253
				c-0.027-12.812-0.244-24.239-0.733-33.55c-3.691-70.249,13.328-155.726,13.437-175.758l2.199,0.435
				C2242.526,895.741,2225.562,980.974,2229.253,1050.924z"/>
		</g>
		<path style="fill:#C78D71;" d="M2212.281,782.636c0,0,15.118,15.988,36.478,11.725c21.359-4.264,30.842-14.043,30.842-14.043
			s-8.432,21.145-33.124,23.08C2221.784,805.332,2212.281,782.636,2212.281,782.636z"/>
	</g>
	<g>
		<g>
			<g>
				<path style="fill:#EEA886;" d="M1474.861,554.076c-0.047,0-0.096-0.006-0.145-0.018c-1.438-0.349-3.711-7.233-4.152-8.609
					c-0.104-0.378-0.328-1.07-0.638-2.029c-1.783-5.511-5.957-18.416-4.33-23.36c0.513-1.56,1.313-2.464,2.379-2.685
					c2.285-0.472,4.896,2.428,5.007,2.552l0.055,0.063l0.01,0.084c0.593,5.429,3.489,32.573,2.24,33.819
					C1475.165,554.014,1475.018,554.076,1474.861,554.076z M1468.501,517.848c-0.142,0-0.282,0.013-0.42,0.042
					c-0.868,0.181-1.536,0.966-1.986,2.335c-1.573,4.782,2.716,18.043,4.331,23.034c0.312,0.965,0.537,1.662,0.642,2.041
					c1.057,3.296,2.929,8.044,3.773,8.25c0.021,0.005,0.038,0.009,0.075-0.028c0.795-1.077-1.034-20.961-2.382-33.304
					C1472.184,519.841,1470.235,517.848,1468.501,517.848z"/>
			</g>
		</g>
		<g>
			<g>
				<path style="fill:#16202E;" d="M1522.173,445.858c0,0,35.033-3.672,47.655,30.16c12.621,33.832,24.509,44.907,25.997,62.681
					c6.018,71.886,39.587,55.626,30.146,97.063c-9.441,41.438-15.979,47.706-15.979,47.706l-80.258-15.736l-81.302,0.262
					c0,0,31.808-15.885,24.727-49.717c-7.081-33.832-24.727-89.283-14.761-127.049
					C1468.364,453.464,1501.236,448.743,1522.173,445.858z"/>
			</g>
		</g>
		<g>
			<g>
				<path style="fill:#EEA886;" d="M1564.958,554.076c-0.156,0-0.303-0.063-0.425-0.184c-1.249-1.246,1.647-28.39,2.24-33.819
					l0.009-0.084l0.056-0.063c0.11-0.123,2.722-3.029,5.007-2.552c1.065,0.221,1.865,1.124,2.379,2.685
					c1.627,4.944-2.547,17.85-4.33,23.36c-0.309,0.958-0.533,1.65-0.635,2.018c-0.444,1.387-2.719,8.272-4.155,8.62
					C1565.055,554.07,1565.007,554.076,1564.958,554.076z M1567.285,520.217c-1.347,12.343-3.176,32.227-2.376,33.31
					c0.032,0.032,0.05,0.028,0.07,0.022c0.845-0.205,2.717-4.954,3.776-8.26c0.102-0.368,0.327-1.065,0.639-2.03
					c1.615-4.991,5.904-18.253,4.331-23.034c-0.451-1.369-1.119-2.155-1.986-2.335
					C1569.915,517.514,1567.665,519.81,1567.285,520.217z"/>
			</g>
		</g>
		<g>
			<g>
				<path style="fill:#FAA146;" d="M1686.895,769.076h-50.011c-10.37-18.899-18.795-33.682-18.795-33.682
					s-6.74,12.299-11.969,33.682h-168.357c-2.571-13.341-2.728-26.126-2.189-35.228c0,0-8.998,16.259-19.438,35.228h-56.56
					c15.009-28.106,43.132-79.28,49.524-85.951c8.025-8.408,54.545-40.561,87.758-51.053c33.229-10.492,52.112-0.364,52.112-0.364
					s34.116,6.148,65.661,18.656C1627.034,655.279,1661.29,718.544,1686.895,769.076z"/>
			</g>
		</g>
		<g>
			<g>
				<path style="fill:#8E4F3A;" d="M1526.793,465.646c0,0,46.397,6.695,39.605,75.188c-6.792,68.492-47.741,63.056-50.477,62.998
					c-2.735-0.058-41.081,1.424-44.397-82.152C1471.524,521.68,1469.978,459.876,1526.793,465.646z"/>
			</g>
		</g>
		<g>
			<g>
				<path style="fill:#8E4F3A;" d="M1547.407,591.683c0,0-2.872,35.627,3.99,46.302c6.862,10.674-5.869,25.16-32.099,20.205
					c-26.229-4.956-24.704-19.824-24.704-19.824s7.344-21.986,5.196-39.585C1497.645,581.181,1547.407,591.683,1547.407,591.683z"/>
			</g>
		</g>
		<g>
			<g>
				<path style="fill:#16202E;" d="M1521.486,490.469c0,0,21.679,22.791,31.748,34.331c10.069,11.54,11.228,33.832,11.228,33.832
					s16.962-20.719,9.869-44.847c-7.093-24.128-23.878-71.073-66.364-56.649c-42.487,14.424-44.061,77.892-39.077,109.364
					C1468.89,566.499,1487.961,497.025,1521.486,490.469z"/>
			</g>
		</g>
		<g>
			<g>
				<path style="fill:#8E4F3A;" d="M1563.697,634.839c0,0-32.176,81.496-51.733,95.658c0,0-25.688-83.118-23.894-95.287
					C1488.07,635.21,1526.822,620.025,1563.697,634.839z"/>
			</g>
		</g>
		<g>
			<path style="fill:#16202E;" d="M1495.701,615.131c0,0-57.36,51.036-42.474,82.875c12.705,27.175,57.753,10.509,50.322-17.964
				C1496.118,651.569,1495.701,615.131,1495.701,615.131z"/>
		</g>
		<g>
			<path style="fill:#633029;" d="M1503.202,600.729c0,0,19.768,9.343,39.01-4.458c0,0-5.344,11.037-19.505,12.607
				C1508.546,610.446,1503.202,600.729,1503.202,600.729z"/>
		</g>
	</g>
	<g>
		<g>
			<path style="fill:#323657;" d="M2012.308,412.207c0,0-19.023,71.594-22.992,87.726c-1.181,4.858-4.996,13.258-9.837,22.838
				c-0.034,0.069-0.068,0.137-0.12,0.223c-1.043,2.104-1.539,4.02-1.779,5.816c-0.77,5.97,1.523,10.675-2.446,17.757l-0.718,2.977
				h-37.653c4.396-13.052,9.974-29.663,14.438-43.041c3.746-11.291,6.706-20.273,7.493-22.873
				c2.326-7.766,10.863-32.915,18.116-49.611c2.532-5.816,12.283-11.564,20.922-15.722
				C2005.464,414.619,2012.308,412.207,2012.308,412.207z"/>
		</g>
		<g>
			<path style="fill:#FCCCA2;" d="M1987.117,309.94c0,0-12.004-77.649,52.307-76.217s63.451,39.828,62.305,77.936
				s-25.787,35.243,2.006,88.25c27.793,53.008-24.068,53.008-24.068,53.008l-40.242-55.3L1987.117,309.94z"/>
		</g>
		<g>
			<path style="fill:#EEA886;" d="M2032.389,241.174c0,0-43.553,6.877-45.271,68.767c-1.72,61.89,11.747,75.07,49.856,62.177
				c38.107-12.894,50.142-77.649,51.002-87.678C2088.835,274.411,2091.127,233.724,2032.389,241.174z"/>
		</g>
		<g>
			<path style="fill:#E55353;" d="M2108.877,456.446c0.154,21.298-24.326,72.243-28.106,87.982
				c-0.445,1.831-0.924,3.524-1.403,5.115h-118.86c-0.616-7.339-1.197-13.617-1.488-17.158
				c-0.941-11.633-12.727-36.694-12.335-48.362c0.411-11.889,6.244-22.153,14.405-34.847c2.531-3.935,5.199-7.938,7.852-11.838
				c8.656-12.694,17.295-24.224,21.538-28.193c3.165-2.942,6.106-5.2,8.673-6.911c0.017-0.017,0.017-0.017,0.017-0.017
				c5.338-3.559,8.93-4.705,8.93-4.705l37.431-5.988c0,0,23.334,8.451,36.763,11.581
				C2082.292,403.105,2108.483,406.938,2108.877,456.446z"/>
		</g>
		<g>
			<path style="fill:#E55353;" d="M1999.176,402.216l-21.697,34.195l-20.026,31.56c0.047-0.17,1.381-4.948,3.643-18.787
				c0.431-2.627,0.893-5.581,1.387-8.89c0.145-0.979,0.359-1.951,0.63-2.911c0,0,0,0,0-0.003
				c8.57-19.759,35.07-34.658,36.039-35.153C1999.166,402.219,1999.176,402.216,1999.176,402.216z"/>
		</g>
		<g>
			<path style="fill:#EEA886;" d="M2061.474,344.24c-3.775,7.129-7.762,51.382-7.762,51.382s-53.269,20.133-47.816,8.745
				c2.473-5.168,3.199-11.875,3.249-17.657c0.048-4.559-0.327-8.542-0.591-10.75c-0.139-1.164-0.246-1.834-0.246-1.834
				S2065.249,337.108,2061.474,344.24z"/>
		</g>
		<g>
			<path style="fill:#FCCCA2;" d="M2014.624,285.585c0,0,22.35,36.389,42.692,50.716c20.344,14.326,10.028,25.788,10.028,25.788
				s53.08-111.746,2.615-119.482c-50.465-7.736-81.41-8.309-82.843,67.334C1987.117,309.94,2010.04,285.013,2014.624,285.585z"/>
		</g>
		<g>
			<path style="fill:#A77860;" d="M2038.927,371.402c-8.176,12.061-29.779,15.308-29.779,15.308s0,0-0.003,0
				c0.048-4.559-0.327-8.542-0.591-10.75C2022.433,378.635,2038.927,371.402,2038.927,371.402z"/>
		</g>
		<path style="fill:#EBEEFF;" d="M1963.203,437.148l-0.003,0c0,0-1.157,2.396-2.105,12.036l7.846-11.841
			c0,0,14.013-20.091,18.813-25.315c4.802-5.224,11.396-9.8,11.396-9.8S1971.581,415.475,1963.203,437.148z"/>
		<path style="fill:#E55353;" d="M2069.203,467.108c0,0,34.189-13.409,44.305-14.19c0,0-6.878-54.902-40.461-49.083
			C2039.465,409.654,2069.203,467.108,2069.203,467.108z"/>
		<path style="fill:#EEA886;" d="M2008.097,397.509c0,0-25.1,38.596-16.604,41.967c8.497,3.372,54.49-4.499,74.045-41.159
			C2065.538,398.317,2036.3,383.325,2008.097,397.509z"/>
		<path style="fill:#323657;" d="M2113.513,452.922c-1.744,30.263-10.332,58.968-17.415,85.314
			c-1.026,3.815-2.019,7.596-2.942,11.308h-69.609c-0.17-10.436-0.137-19.639,0.188-27.32
			c3.507-83.996,30.126-128.166,30.126-128.166s8.502,2.856,32.966,9.785c16.765,4.739,23.095,26.071,25.403,39.004
			c0,0,0.018,0.051,0.035,0.154C2113.291,448.834,2113.513,452.922,2113.513,452.922z"/>
		<path style="fill:#323657;" d="M2008.081,397.529c-0.273,0.479-4.857,8.177-10.349,20.768
			c-8.245,18.904-18.544,48.841-19.416,81.824c-0.273,10.589-2.379,27.748-5.577,49.422h-13.892
			c-1.402-18.134-4.721-32.623-7.646-43.041c-1.898-6.758-3.644-11.805-4.585-15.004c-4.431-15.071,9.734-35.138,14.474-42.323
			C1965.844,442.008,1977.203,409.025,2008.081,397.529z"/>
		<path style="fill:#323657;" d="M2135.684,549.543h-37.379c0-2.429-0.838-6.399-2.207-11.308
			c-6.791-24.138-26.892-71.132-26.892-71.132s-30.075-49.148-1.574-61.671c28.5-12.522,40.766,22.479,44.598,37.414
			c0,0,0.018,0.051,0.035,0.154C2113.205,446.575,2130.176,511.274,2135.684,549.543z"/>
	</g>
	<g>
		<g>
			<path style="fill:#EEA886;" d="M1526.064,1250.304c0,0,13.062-0.183,17.712-5.216c4.651-5.033,12.865-9.543,15.499-10.825
				c3.523-1.715,13.269-11.191,14.491-6.564c1.224,4.626-15.518,16.364-18.704,19.533c-3.188,3.168,13.908,4.55,16.416,7.624
				c2.507,3.074-6.216,35.422-17.607,32.915c-11.392-2.505-20.72-13.992-22.874-13.968c-2.153,0.025-8.412-1.438-8.412-1.438
				L1526.064,1250.304z"/>
		</g>
		<g>
			<path style="fill:#EEA886;" d="M1569.056,1253.535c0,0,34.001,10.385,35.402,13.328c1.4,2.942,0.451,5.096-2.788,4.281
				c-3.239-0.813-33.284-8.904-33.284-8.904s37.159,20.316,38.832,22.349c0.979,1.19-0.651,5.438-2.451,5.192
				c-1.799-0.247-40.053-17.793-40.053-17.793s34.653,19.046,35.517,21.31c0.755,1.979-1.566,5.628-4.256,4.433
				s-36.085-16.637-36.085-16.637s24.146,15.813,23.771,18.416c-0.229,1.592-1.495,5.308-7.575,0.984
				c-6.08-4.324-21.666-12.628-21.666-12.628L1569.056,1253.535z"/>
		</g>
		<g>
			<path style="fill:#353A3D;" d="M1454.539,1823.894c0,0,10.908,16.319,26.209,19.845c15.3,3.526,30.371,9.133,30.486,18.789
				c0.114,9.654-44.237,15.414-61.746,5.68c-26.132-14.527-28.789-10.148-31.687-17.41c-2.896-7.262,3.48-26.681,3.292-28.99
				C1420.861,1818.953,1454.539,1823.894,1454.539,1823.894z"/>
		</g>
		<g>
			<path style="fill:#81807E;" d="M1452.845,1815.844c0,0,1.99,7.883,1.694,8.05s-34.479,4.239-33.445-2.087
				c0.839-5.13,2.035-10.705,2.035-10.705L1452.845,1815.844z"/>
		</g>
		<g>
			<path style="fill:#353A3D;" d="M1239.888,1822.811c0,0,7.78,15.611,21.074,20.928c14.209,5.685,25.605,12.217,25.346,21.625
				c-0.259,9.408-34.737,18.941-59.82,0.886c-15.848-11.408-20.87-11.464-23.413-18.647c-2.542-7.184,4.415-25.852,4.32-28.107
				C1207.277,1816.705,1239.888,1822.811,1239.888,1822.811z"/>
		</g>
		<g>
			<path style="fill:#81807E;" d="M1240.276,1814.705c0,0-0.094,7.955-0.389,8.105c-0.295,0.151-33.333,2.874-32.493-3.316
				c0.667-4.917,3.206-10.857,3.206-10.857L1240.276,1814.705z"/>
		</g>
		<g>
			<path style="fill:#2D3133;" d="M1361.411,1337.839c0,0,43.393,166.24,59.915,204.672c15.308,35.607,20.358,85.404,22.467,110.416
				c2.651,31.458,18.43,153.962,20.285,163.159c1.856,9.199-51.046,5.088-51.046,5.088s-36.477-211.812-51.621-242.722
				c-10.105-20.627-68.744-168.552-75.454-160.033c-6.71,8.518-15.03,156.733-19.999,181.337s-20.225,219.009-20.225,219.009
				s-34.108,5.033-43.218-2.679c0,0-4.147-165.997-0.981-212.125c1.207-17.578-20.598-210.777,7.361-288.555
				C1223.671,1274.302,1361.411,1337.839,1361.411,1337.839z"/>
		</g>
		<g>
			<path style="fill:#DECBC4;" d="M1119.714,1218.627c0,1.902,3.589,9.507,9.321,20.445c8.38-16.762,14.963-30.527,17.116-35.59
				c7.062-16.681,43.454-54.913,43.454-54.913s0,0.026,0.017,0.08c0,0.016,0.005,0.032,0.01,0.048
				c0.006,0.011,0.012,0.026,0.012,0.042c0.016,0.054,0.031,0.106,0.042,0.159c0.026,0.091,0.053,0.197,0.09,0.325
				c0.021,0.063,0.038,0.133,0.054,0.202c0.016,0.053,0.032,0.101,0.042,0.154c1.983,7.381,14.15,53.524,14.597,76.252
				c0.494,24.741,6.95,70.519,6.95,70.519l0.026,0.005l7.599,1.064l16.813,2.371l2.016,0.282l4.892,0.686l44.587,6.274l15.813,2.223
				l2.138,0.304l9.039,1.271l24.96,3.51l6.365,0.893l0.059,0.011l4.765,0.671l6.594,0.925c0,0,0,0,0.005-0.005
				c0.181-0.245,6.413-8.774,5.45-27.72c-0.611-12.23-2.084-35.212-1.473-56.53c0-0.111,0.011-0.223,0.011-0.329
				c0-0.271,0.016-0.537,0.021-0.809c0.011-0.096,0.011-0.181,0.016-0.271v-0.049c0.388-11.714,1.42-22.816,3.604-31.25
				c1.474-5.711,2.457-11.363,3.101-16.659c0.032-0.261,0.063-0.516,0.096-0.771c0.112-0.984,0.218-1.958,0.309-2.914
				c1.42-14.788,0.303-26.045,0.233-26.705l0.027,0.054c0.451,0.983,3.706,12.911,7.971,27.635
				c7.21,24.891,17.303,57.778,21.604,59.357c6.253,2.303,107.555,32.304,129.431,35.378c2.531,0.355,3.999,0.35,4.137-0.097
				c0.102-0.319,0.202-0.648,0.304-0.989c2.658-8.763,6.312-23.656,6.896-26.061c0.059-0.217,0.085-0.335,0.085-0.335l-3.919-1.175
				l-110.224-33.031l-50.389-145.304c-1.053-0.841-13.426-6.833-22.466-11.13c-9.215-4.387-20.328-10.831-30.389-16.346
				c-5.132-2.808-9.986-5.37-14.182-7.295l-0.644-0.292l-0.005-0.006c-6.939-3.175-11.55-5.274-11.55-5.274s-0.006,0-0.021,0
				c-0.165-0.016-1.255-0.123-3.015-0.287c-9.678-0.92-39.753-3.738-49.829-4.329c-0.83-0.053-1.526-0.085-2.063-0.096
				c-0.463-0.016-0.803-0.021-1.016-0.005c-1.276,0.074-7.471,2.238-15.623,5.339h-0.005c-0.309,0.117-0.617,0.233-0.931,0.355
				c-0.383,0.145-0.766,0.288-1.153,0.437c-0.708,0.271-1.426,0.547-2.154,0.83c-1.457,0.568-2.956,1.153-4.477,1.754
				c-0.521,0.208-1.054,0.415-1.59,0.628c-16.304,6.472-34.983,14.468-39.424,17.659c-2.93,2.1-12.065,19.317-22.657,40.608
				c-13.64,43.693-30.926,110.575-31.463,127.07C1119.719,1218.143,1119.714,1218.393,1119.714,1218.627z"/>
		</g>
		<g>
			<path style="fill:#495055;" d="M1357.086,1316.832c0,0,3.355,4.014,4.325,21.007c0,0-137.934-16.092-152.516-22.433
				c0,0-0.57-18.728,2.523-19.053C1214.816,1295.996,1357.086,1316.832,1357.086,1316.832z"/>
		</g>
		<g>
			<path style="fill:#EEA886;" d="M1239.459,1018.521c0.429,21.647,42.343,33.49,42.343,33.49s17.533-21.979,13.345-24.085
				c-1.645-0.826-2.313-4.107-2.518-7.786c-0.189-3.502,0.034-7.365,0.239-9.818c0.124-1.531,0.242-2.516,0.242-2.516
				s-5.988-6.319-13.607-13.847c-13.313-13.164-31.615-30.027-31.644-23.318c-0.002,0.355,0.047,0.78,0.154,1.272
				C1251.23,987.009,1239.459,1018.521,1239.459,1018.521z"/>
		</g>
		<g>
			<path style="fill:#353A3D;" d="M1242.936,1299.673c0,0-3.011,18.985-3.271,23.934l-6.381-1.272c0,0,1.758-20.087,2.791-23.453
				L1242.936,1299.673z"/>
		</g>
		<g>
			<path style="fill:#353A3D;" d="M1345.579,1314.617c0,0,2.418,17.257,2.476,23.774l-6.751-0.877c0,0-1.383-21.551-2.154-23.801
				L1345.579,1314.617z"/>
		</g>
		<g>
			<path style="fill:#A77860;" d="M1255.602,986.803c0,0,0,0,0.003,0.004c0.083,0.126,1.86,2.786,4.895,6.603
				c6.435,8.094,18.531,21.39,32.13,26.73c-0.189-3.502,0.034-7.365,0.239-9.818c1.391-0.035,2.782-0.196,4.162-0.501
				c-3.729-6.514-9.113-13.344-9.113-13.344l-8.414-2.517L1255.602,986.803z"/>
		</g>
		<g>
			<path style="fill:#EEA886;" d="M1247.556,970.934c3.627,7.887,7.068,13.604,8.046,15.869c0,0,0,0,0.003,0.004
				c0.635,1.475,2.367,3.88,4.895,6.603c6.907,7.441,19.747,17.257,32.369,16.912c1.391-0.035,2.782-0.196,4.162-0.501
				c5.097-1.114,11.114-3.481,14.426-9.965c26.148-51.197,7.217-93.061,7.217-93.061s-71.498-20.219-82.686,1.305
				C1228.138,923.196,1239.037,952.4,1247.556,970.934z"/>
		</g>
		<g>
			<path style="fill:#252E3B;" d="M1318.673,906.794c0,0,6.641-0.368,8.282-12.956c1.622-12.438-1.658-15.885-1.658-15.885
				s-29.517-12.356-40.116-13.963c-10.601-1.607-36.665-3.15-42.774,3.836c0,0-14.844-3.45-18.888,21.193
				c-6.416,39.093,21.862,77.054,21.862,77.054s-0.241-25.539,5.391-28.924c5.632-3.384,10.494,4.664,10.494,4.664l11.521,2.064
				c0,0-17.499-37.786,3.492-39.185C1297.271,903.292,1306.656,908.986,1318.673,906.794z"/>
		</g>
		<g>
			<path style="fill:#EEA886;" d="M1260.949,931.632c-1.097-11.251-21.444-15.548-20.081-3.754
				c1.363,11.793,11.383,23.124,16.012,22.725C1261.51,950.204,1261.784,940.208,1260.949,931.632z"/>
		</g>
		<g>
			<path style="fill:#3C4145;" d="M1129.035,1239.072c8.864,16.908,22.849,41.789,36.658,65.914
				c-1.818,3.393-3.595,6.758-5.296,10.082c-4.153,8.125-7.838,15.989-10.454,23.321c-3.148,8.816-7.524,31.4,0.851,35.596
				l44.124,24.354c0,0,0.308-0.861,0.894-2.457c1.462-3.962,4.631-12.438,9.018-23.418c0.144-0.356,0.585-1.403,1.239-2.945
				c0.877-2.069,2.143-5.025,3.589-8.401c0.649-1.511,1.33-3.105,2.037-4.743c0.797-1.872,1.627-3.802,2.451-5.722
				c1.201-2.797,2.398-5.578,3.504-8.152c3.01-7.008,5.36-12.464,5.36-12.464c0.148-0.324,0.298-0.643,0.446-0.968
				c1.436-3.104,2.909-6.221,4.408-9.326c2.318-4.813,4.706-9.604,7.146-14.288c0.245-0.479,0.489-0.952,0.739-1.425
				c0.437-0.824,0.872-1.648,1.308-2.462c0.271-0.5,0.543-1,0.814-1.494c0.059-0.112,0.122-0.224,0.181-0.335
				c0.111-0.197,0.218-0.395,0.329-0.591c12.757-23.269,27.125-42.725,31.708-71.258c0.441-2.755,0.861-5.493,1.261-8.21
				c0.664-4.531,1.275-9.003,1.834-13.385c0.207-1.658,0.415-3.297,0.611-4.924c2.297-19.036,3.669-35.998,4.775-47.813
				c3.451-36.808-19.095-76.662-36.403-101.281c-9.257-13.165-17.01-21.977-18.505-23.646c-0.037-0.032-0.063-0.063-0.09-0.09
				c-0.309,0.117-0.617,0.233-0.931,0.355c-0.383,0.145-0.766,0.288-1.153,0.437c-0.708,0.271-1.426,0.547-2.154,0.83
				c-1.457,0.568-2.956,1.153-4.477,1.754c-0.521,0.208-1.054,0.415-1.59,0.628c-16.761,6.572-52.058,16.281-56.498,19.467
				c-2.563,1.834-8.299,18.631-14.919,39.847c-13.639,43.693-21.733,109.572-22.127,126.024c-0.006,0.261-0.011,0.511-0.011,0.745
				C1119.714,1220.529,1123.303,1228.134,1129.035,1239.072z M1196.082,1230.852c0,8.209-2.669,17.61-6.774,27.629
				c-0.106,0.25-0.207,0.505-0.313,0.755c-2.829-6.036-5.493-11.815-7.881-17.17c-0.005-0.011-0.01-0.017-0.01-0.026
				c-6.567-14.698-11.076-26.162-11.326-30.698c-1.622-29.144,19.845-62.691,19.845-62.691c0,0.016,0.005,0.032,0.01,0.048
				c0.006,0.011,0.012,0.026,0.012,0.042c0.016,0.054,0.031,0.106,0.042,0.159c0.032,0.107,0.063,0.213,0.09,0.325
				c0.021,0.063,0.038,0.133,0.054,0.202c0.016,0.053,0.032,0.101,0.042,0.154
				C1194.269,1166.904,1196.082,1230.852,1196.082,1230.852z"/>
		</g>
		<path style="fill:#B3A5A0;" d="M1279.894,1340.665l-125.771,55.98c-7.115,3.167-15.451-0.033-18.617-7.148l-34.433-77.357
			c-3.167-7.114,0.034-15.449,7.149-18.617l125.771-55.98c7.114-3.168,15.45,0.033,18.617,7.148l34.432,77.357
			C1290.209,1329.162,1287.008,1337.498,1279.894,1340.665z"/>
		<g>
			<path style="fill:#3C4145;" d="M1307.014,1033.751c0,0,5.897,19.637,13.527,68.653c0,0.005,0,0.011,0.006,0.016
				c0.261,1.648,0.516,3.323,0.776,5.035c0.026,0.197,0.059,0.398,0.09,0.596c0.171,1.133,0.346,2.281,0.516,3.446
				c0.021,0.138,0.043,0.275,0.064,0.409c0.117,0.781,0.234,1.568,0.346,2.365c0.287,1.937,0.574,3.909,0.861,5.919
				c3.403,23.859,8.178,64.463,12.767,105.454v0.017c3.627,32.309,11.891,65.463,14.517,90.204c0,0.017,0.006,0.032,0.006,0.049
				c0.521,4.849,1.76,11.31,3.435,18.6c0.187,0.824,0.383,1.659,0.58,2.504c7.392,31.23,21.742,75.434,21.742,75.434l4.18-3.86
				l12.379-11.427c2.851-2.627,3.93-6.658,2.781-10.354c-6.865-22.146-30.197-100.525-34.473-155.635
				c-0.005-0.017-0.005-0.032-0.005-0.049c2.1-19.364,7.46-45.346,6.657-49.084c0.053,0.133,0.101,0.266,0.148,0.404
				c2.457,6.832,5.179,14.261,7.923,21.492v0.006c7.365,19.419,14.899,37.413,18.037,38.562
				c6.981,2.568,132.387,39.566,133.296,34.403c0.091-0.521,0.197-1.074,0.319-1.658c0.111-0.575,0.239-1.182,0.372-1.814
				c1.548-7.066,4.36-17.201,6.323-24.045c0.292-1.01,0.563-1.951,0.808-2.797c0.824-2.834,1.361-4.631,1.361-4.631l-106.05-34.808
				l-53.51-139.934c-1.053-0.834-14.708-8.184-23.747-12.485c-9.412-4.482-21.323-10.012-31.889-14.889
				c-5.046-2.334-9.8-4.514-13.814-6.359L1307.014,1033.751z"/>
		</g>
		<g>
			<path style="fill:#51565C;" d="M1235.211,1082.263l20.391,11.499l-8.712,8.885l23.197,125.245
				c4.729-29.356,6.883-57.235,8.484-74.332c5.334-56.902-51.462-121.092-54.995-125.022c-2.728,1.034-5.675,2.178-8.72,3.381
				L1235.211,1082.263z"/>
		</g>
		<g>
			<path style="fill:#51565C;" d="M1306.699,1033.199c0,0,7.618,24.882,16.498,86.99c3.404,23.859,8.181,64.467,12.772,105.453
				l4.746-117.296l-9.714-10.523l8.635-10.793l-18.478-47.181c-5.047-2.334-9.799-4.516-13.817-6.36L1306.699,1033.199z"/>
		</g>
		<g>
			<path style="fill:#F5E2D9;" d="M1222.438,1028.97l17.021-10.449c0,0,0.474,9.271,42.343,33.49l-11.891,33.489L1222.438,1028.97z"
				/>
		</g>
		<g>
			<path style="fill:#F5E2D9;" d="M1292.939,1023.192c0,0-0.659,10.007-11.138,28.818l23.206,30.252l1.691-49.063L1292.939,1023.192
				z"/>
		</g>
		<g>
			<path style="fill:#FAA146;" d="M1281.739,1052.011c0,0-4.497,17.989-2.879,23.025c0,0,9.89,3.599,16.998-0.899
				C1295.858,1074.137,1290.823,1061.545,1281.739,1052.011z"/>
		</g>
		<g>
			<g>
				<path style="fill:#AD9F99;" d="M1304.987,1311.453c2.517-12.692,0.122-50.726,0.019-52.338l-2.154,0.138
					c0.024,0.392,2.48,39.363,0.019,51.78L1304.987,1311.453z"/>
			</g>
		</g>
		<g>
			<path style="fill:#69737A;" d="M1287.379,1305.601c0,0,20.296,2.424,27.007,4.098l-0.879,22.749l-26.578-2.836L1287.379,1305.601
				z"/>
		</g>
		<g>
			<path style="fill:#FAA146;" d="M1291.82,1072.518c0,0,22.636,57.165,18.944,121.148c-3.828,66.341-10.107,90.395-10.107,90.395
				l-13.958,17.504l-6.154-21.514c0,0,18.729-84.578,6.639-166.878c-2.191-14.914-5.444-43.173-5.444-43.173L1291.82,1072.518z"/>
		</g>
		<g>
			<path style="fill:#EEA886;" d="M1223.801,1342.48c0,0,4.857,9.715,9.715,11.333c4.856,1.619,11.94,9.512,11.94,9.512
				l-34.202,18.012c0,0-9.106-17.81-9.512-29.142C1201.337,1340.861,1223.801,1342.48,1223.801,1342.48z"/>
		</g>
		<g>
			<path style="fill:#DECBC4;" d="M1227.048,1343.392l2.266,4.554c0,0-21.722,15.886-27.576,16.898l-2.011-6.072L1227.048,1343.392z
				"/>
		</g>
		<g>
			<path style="fill:#3C4145;" d="M1229.313,1343.591c0,0-16.278,13.461-29.993,19.667l-61.451-107.751l39.222-21.445
				C1177.091,1234.062,1228.233,1335.496,1229.313,1343.591z"/>
		</g>
		<g>
			<path style="fill:#2D3133;" d="M1367.122,1153.047c0.755,15.352,0.644,28.984,0.644,28.984s0,0.006,0,0.012
				c0.005,0.074,0.021,0.488,0.053,1.175c0.032-0.261,0.063-0.516,0.096-0.771c2.457,6.832,5.179,14.261,7.923,21.492
				c0.639-8.38,0.803-16.191,0.617-23.423c-1.101-43.044-14.639-65.617-14.639-65.617
				C1364.921,1122.402,1366.409,1138.498,1367.122,1153.047z"/>
		</g>
	</g>
	<g>
		<g>
			<path style="fill:#EEA886;" d="M1901.103,1011.144c0,0-0.641-7.91,0.291-11.602c1.608-6.375-0.762-16.701,7.256-21.709
				s31.071,15.968,32.885,21.828c1.813,5.858-6.807,15.849-24.831,24.239S1901.103,1011.144,1901.103,1011.144z"/>
		</g>
		<g>
			<path style="fill:#EEA886;" d="M1906.196,979.91c0,0,7.783-11.712,18.057-23.677c9.014-10.497,21.666-22.27,24.336-20.035
				c4.055,3.395-7.425,11.859-15.654,22.87c-7.576,10.137-4.363,9.418-4.363,9.418s-0.926,0.155,9.505-9.274
				c11.216-10.137,23.687-20.557,25.908-18.767c2.753,2.218,2.909,2.727-0.552,7.076c2.533-2.069,3.468-1.665,4.443-0.686
				c5.05,5.072-9.076,22.55-14.688,29.489c4.344-5.304,8.107-8.727,9.191-3.627c1.24,5.835-19.861,29.638-26.59,38.894
				C1928.451,1021.69,1906.196,979.91,1906.196,979.91z"/>
		</g>
		<g>
			<g>
				<g>
					<g>
						<path style="fill:#181929;" d="M1636.558,1820.928c0,0,21.938,12.971,31.869,17.79c9.932,4.82,48.526,6.202,52.34,9.826
							c3.813,3.623,2.416,15.159-3.98,16.337c-6.397,1.178-53.303,5.42-68.955,1.76c-15.652-3.659-44.922,2.5-51.405,0.298
							c-6.482-2.202-2.301-37.147,0.204-44.991C1599.137,1814.104,1636.558,1820.928,1636.558,1820.928z"/>
					</g>
				</g>
			</g>
		</g>
		<g>
			<g>
				<g>
					<g>
						<path style="fill:#22243B;" d="M1638.384,1806.641l-1.826,14.287c0,0-29.328,5.484-38.215,0.967l2.201-14.846
							L1638.384,1806.641z"/>
					</g>
				</g>
			</g>
		</g>
		<g>
			<path style="fill:#292C47;" d="M1756.04,1318.577c-0.313,9.895-2.115,31.364-4.214,53.908c-0.468,5.009-0.96,10.075-1.443,15.076
				c-2.926,30.34-5.878,58.401-5.878,58.401c-3.705,24.15-11.346,66.082-19.888,97.783v0.008c-2.467,9.148-5,17.445-7.542,24.217
				c-2.476,6.591-4.959,11.739-7.369,14.821c-18.175,23.216-59.845,229.039-59.845,229.039l-56.884-0.435
				c0,0,12.51-139.371,25.085-174.695c14.026-39.457,38.398-92.627,32.349-130.682c-3.787-23.88-8.674-99.891-8.674-99.891
				s-4.754-85.412,17.585-147.97C1664.896,1242.526,1756.04,1318.577,1756.04,1318.577z"/>
		</g>
		<g>
			<g>
				<g>
					<g>
						<path style="fill:#181929;" d="M1796.411,1826.274c0,0,21.78,13.231,31.653,18.171c9.874,4.938,48.448,6.784,52.218,10.453
							c3.77,3.668,2.234,15.187-4.176,16.287c-6.41,1.102-53.364,4.78-68.972,0.934c-15.607-3.848-44.948,1.961-51.404-0.319
							s-1.855-37.173,0.744-44.985S1796.411,1826.274,1796.411,1826.274z"/>
					</g>
				</g>
			</g>
		</g>
		<g>
			<g>
				<g>
					<g>
						<path style="fill:#22243B;" d="M1798.409,1812.011l-1.998,14.264c0,0-29.391,5.132-38.224,0.509l2.38-14.819
							L1798.409,1812.011z"/>
					</g>
				</g>
			</g>
		</g>
		<g>
			<path style="fill:#292C47;" d="M1730.413,1607.91c-1.48-45.521-5.501-75.765-17.215-102.063
				c-9.838-22.085-18.256-91.441-18.256-91.441s-26.66-81.272-21.257-147.486c1.353-16.535,104.398,25.036,104.398,25.036
				c2.255,9.641,9.149,39.98,11.592,62.483c13.953,128.566,8.731,212.323,8.731,212.323c-7.969,28.39,12.165,251.747,12.165,251.747
				h-57.999c0,0-15.207-79.458-16.805-128.874C1735.768,1689.636,1729.84,1615.781,1730.413,1607.91z"/>
		</g>
		<g>
			<g>
				<path style="fill:#CFBEB6;" d="M1729.119,1018.873c0,0,27.023,44.304,34.924,69.023c7.901,24.72,1.536,96.598,2.931,111.044
					c4.325,44.82,10.635,94.164,10.635,94.164l-90.59,57.864c0,0-16.259-37.98-30.438-85.271
					c-14.179-47.291-15.319-89.867-15.188-118.316c0.416-89.239,48.652-139.629,48.652-139.629L1729.119,1018.873z"/>
			</g>
		</g>
		<g>
			<g>
				<path style="fill:#EEA886;" d="M1762.413,900.045c0,0,18.574,19.88,13.328,25.107c-4.334,4.319,12.743,24.131,15.172,27.462
					c2.429,3.332-7.584,8.845-9.232,11.832s-0.678,34.168-9.275,37.374c-8.596,3.205-52.012-0.185-65.802-8.603
					c-13.79-8.419-36.037-56.96-34.441-80.318C1673.76,889.542,1729.743,865.377,1762.413,900.045z"/>
			</g>
		</g>
		<g>
			<g>
				<path style="fill:#EEA886;" d="M1744.846,995.084c0,0-0.318,2.65-0.742,6.756c-0.159,1.723-0.371,3.683-0.557,5.83
					c-0.105,1.271-0.212,2.622-0.345,4c-0.025,0.37-0.079,0.741-0.105,1.113c-0.053,0.635-0.105,1.271-0.159,1.934
					c-0.212,2.993-0.424,6.094-0.583,9.167c-0.396,7.922-0.45,15.499,0.397,19.712c2.279,11.552-47.478-37.198-47.478-37.198
					s4.213-37.808,2.173-80.306C1695.38,883.594,1744.846,995.084,1744.846,995.084z"/>
			</g>
		</g>
		<g>
			<g>
				<path style="fill:#3A3F47;" d="M1766.225,904.409c0,0,8.785-20.73-18.314-35.121c-31.903-16.942-65.729,25.595-70.217,28.1
					c-4.487,2.505-24.886,25.458-4.925,55.887c25.188,38.396,23.859,37.108,23.859,37.108s2.526-28.323,2.36-33.789
					c-0.302-9.988,25.901-11.173,25.901-11.173s-10.761-14.324,1.202-20.748C1738.055,918.249,1752.046,903.006,1766.225,904.409z"
					/>
			</g>
		</g>
		<g>
			<g>
				<path style="fill:#EEA886;" d="M1711.131,941.795c-1.907-2.68-8.906-14.512-17.908-4.121
					c-9.002,10.391,15.138,29.818,17.133,29.626C1712.351,967.11,1727.183,964.346,1711.131,941.795z"/>
			</g>
		</g>
		<g>
			<path style="fill:#23263D;" d="M1782.553,1312.195c0,0-4.506-21.193-5.378-24.363l-132.482,22.044l1.357,17.126
				C1646.05,1327.002,1741.503,1321.286,1782.553,1312.195z"/>
		</g>
		<g>
			<path style="fill:#FAA146;" d="M1632.901,1218.827c0,0,20.353,87.896-11.522,190.433c-3.892,12.518,88.229-1.948,88.229-1.948
				L1632.901,1218.827z"/>
		</g>
		<g>
			<g>
				<path style="fill:#FAA146;" d="M1749.924,1400.875c0,0-65.435,14.361-83.814,7.869c0,0-26.742-97.283-36.07-196.025
					c-0.723-7.633-1.337-15.265-1.828-22.855c0-0.017,0-0.017,0-0.017c-5.206-80.33,15.239-161.825,61.827-182.09
					c1.312,0.886,66.927,58.737,65.681,111.687c-0.09,3.583-0.139,7.182-0.164,10.78c-0.041,6.509,0.009,13.035,0.148,19.544
					l0.008,0.009c0.418,20.142,1.664,40.234,3.443,59.745c0.18,2.033,0.377,4.066,0.573,6.082c0.319,3.279,0.656,6.534,1,9.772
					c0.468,4.312,0.951,8.583,1.46,12.821C1772.779,1326.57,1749.924,1400.875,1749.924,1400.875z"/>
			</g>
		</g>
		<g>
			<path style="fill:#D44040;" d="M1747.235,1057.564c0,0,12.327,48.801,17.026,110.201c3.932,51.372,9.182,87.701,9.182,87.701
				l7.865,25.432l3.234-24.526c0,0-2.886-66.3-6.732-93.27c-3.879-27.192-5.573-61.715-27.312-106.494L1747.235,1057.564z"/>
		</g>
		<g>
			<path style="fill:#D44040;" d="M1745.859,1057.6c0,0,1.485,1.424,3.588,1.736s5.11-3.049-5.636-17.236L1745.859,1057.6z"/>
		</g>
		<g>
			<g>
				<path style="fill:#EDDAD3;" d="M1695.853,1000.42c0,0,30.468,28.694,48.599,35.025l3.458,27.486l-57.865-55.179
					L1695.853,1000.42z"/>
			</g>
		</g>
		<g>
			<path style="fill:#FAA146;" d="M1716.307,1111.509c-12.008-4.269-61.922-28.497-48.646-56.781
				c13.274-28.284,47.497-13.238,73.256-1.732c26.953,12.04,90.578,49.033,95.612,45.587c5.035-3.446,27.043-34.941,31.021-41.96
				c3.977-7.019,27.999-51.878,30.262-55.26c2.212-3.305,37.106,26,37.106,26s-62.658,111.276-79.518,128.993
				C1838.542,1174.073,1716.307,1111.509,1716.307,1111.509z"/>
		</g>
		<g>
			<path style="fill:#181929;" d="M1724.617,1543.746v0.008c-2.467,9.148-5,17.445-7.542,24.217
				c-0.008-0.009-0.008-0.009-0.008-0.009l-19.839-118.349C1702.245,1460.836,1724.617,1543.746,1724.617,1543.746z"/>
		</g>
		<g>
			<path style="fill:#8F5C28;" d="M1755.704,1149.768l-57.41-46.892c15.207,8.149,52.581,25.217,57.262,27.348
				C1755.515,1136.732,1755.564,1143.259,1755.704,1149.768z"/>
		</g>
		<g>
			<path style="fill:#A77860;" d="M1744.104,1001.84c-0.159,1.723-0.371,3.683-0.557,5.83c-0.105,1.271-0.212,2.622-0.345,4
				c-19.022-1.272-33.727-16.427-34.628-17.354C1716.31,1000.462,1744.104,1001.84,1744.104,1001.84z"/>
		</g>
	</g>
	<g style="opacity:0.95;">
		
			<linearGradient id="SVGID_00000102507716897486131400000014262594949926153628_" gradientUnits="userSpaceOnUse" x1="2480.4268" y1="556.1541" x2="2519.7959" y2="556.1541">
			<stop  offset="0" style="stop-color:#D1D7E0"/>
			<stop  offset="1" style="stop-color:#EBEBFF"/>
		</linearGradient>
		<polygon style="fill:url(#SVGID_00000102507716897486131400000014262594949926153628_);" points="2489.653,565.722 
			2519.796,565.722 2510.569,546.586 2480.427,546.586 		"/>
		
			<linearGradient id="SVGID_00000003785114111558633810000013112584488644698798_" gradientUnits="userSpaceOnUse" x1="2466.3232" y1="556.1541" x2="2482.7314" y2="556.1541">
			<stop  offset="0" style="stop-color:#D1D7E0"/>
			<stop  offset="1" style="stop-color:#EBEBFF"/>
		</linearGradient>
		<polygon style="fill:url(#SVGID_00000003785114111558633810000013112584488644698798_);" points="2475.549,565.722 
			2482.731,565.722 2473.505,546.586 2466.323,546.586 		"/>
		
			<linearGradient id="SVGID_00000162330174938128545710000006429482956859363519_" gradientUnits="userSpaceOnUse" x1="2367.3574" y1="538.1484" x2="2493.4609" y2="538.1484">
			<stop  offset="0" style="stop-color:#D1D7E0"/>
			<stop  offset="1" style="stop-color:#EBEBFF"/>
		</linearGradient>
		<polygon style="fill:url(#SVGID_00000162330174938128545710000006429482956859363519_);" points="2371.408,542.932 
			2493.461,542.932 2489.411,533.365 2367.357,533.365 		"/>
	</g>
	<g>
		<g>
			
				<linearGradient id="SVGID_00000161597675046632275830000010163860852344697506_" gradientUnits="userSpaceOnUse" x1="1667.0264" y1="230.0457" x2="1718.7471" y2="230.0457">
				<stop  offset="0" style="stop-color:#D1D7E0"/>
				<stop  offset="1" style="stop-color:#EBEBFF"/>
			</linearGradient>
			<path style="fill:url(#SVGID_00000161597675046632275830000010163860852344697506_);" d="M1715.93,237.839h-46.086
				c-1.556,0-2.817-1.261-2.817-2.817v-9.953c0-1.556,1.262-2.817,2.817-2.817h46.086c1.557,0,2.817,1.262,2.817,2.817v9.953
				C1718.747,236.578,1717.486,237.839,1715.93,237.839z"/>
		</g>
		<g>
			
				<linearGradient id="SVGID_00000096058877780406545090000004284802286268527512_" gradientUnits="userSpaceOnUse" x1="1667.0264" y1="267.4216" x2="1718.7471" y2="267.4216">
				<stop  offset="0" style="stop-color:#D1D7E0"/>
				<stop  offset="1" style="stop-color:#EBEBFF"/>
			</linearGradient>
			<path style="fill:url(#SVGID_00000096058877780406545090000004284802286268527512_);" d="M1715.93,275.215h-46.086
				c-1.556,0-2.817-1.261-2.817-2.817v-9.953c0-1.556,1.262-2.817,2.817-2.817h46.086c1.557,0,2.817,1.262,2.817,2.817v9.953
				C1718.747,273.954,1717.486,275.215,1715.93,275.215z"/>
		</g>
		<g>
			
				<linearGradient id="SVGID_00000116199341403052316270000012387170201168623537_" gradientUnits="userSpaceOnUse" x1="1667.0264" y1="304.7976" x2="1718.7471" y2="304.7976">
				<stop  offset="0" style="stop-color:#D1D7E0"/>
				<stop  offset="1" style="stop-color:#EBEBFF"/>
			</linearGradient>
			<path style="fill:url(#SVGID_00000116199341403052316270000012387170201168623537_);" d="M1715.93,312.591h-46.086
				c-1.556,0-2.817-1.261-2.817-2.817v-9.953c0-1.556,1.262-2.818,2.817-2.818h46.086c1.557,0,2.817,1.262,2.817,2.818v9.953
				C1718.747,311.33,1717.486,312.591,1715.93,312.591z"/>
		</g>
		<g>
			
				<linearGradient id="SVGID_00000139999493812487985280000008012631566246552200_" gradientUnits="userSpaceOnUse" x1="1740.1025" y1="230.0457" x2="1754.8193" y2="230.0457">
				<stop  offset="0" style="stop-color:#D1D7E0"/>
				<stop  offset="1" style="stop-color:#EBEBFF"/>
			</linearGradient>
			<path style="fill:url(#SVGID_00000139999493812487985280000008012631566246552200_);" d="M1752.002,237.839h-9.082
				c-1.556,0-2.817-1.261-2.817-2.817v-9.953c0-1.556,1.262-2.817,2.817-2.817h9.082c1.556,0,2.818,1.262,2.818,2.817v9.953
				C1754.819,236.578,1753.558,237.839,1752.002,237.839z"/>
		</g>
		<g>
			
				<linearGradient id="SVGID_00000110429105662617754650000016081778523524913341_" gradientUnits="userSpaceOnUse" x1="1740.1025" y1="267.4216" x2="1754.8193" y2="267.4216">
				<stop  offset="0" style="stop-color:#D1D7E0"/>
				<stop  offset="1" style="stop-color:#EBEBFF"/>
			</linearGradient>
			<path style="fill:url(#SVGID_00000110429105662617754650000016081778523524913341_);" d="M1752.002,275.215h-9.082
				c-1.556,0-2.817-1.261-2.817-2.817v-9.953c0-1.556,1.262-2.817,2.817-2.817h9.082c1.556,0,2.818,1.262,2.818,2.817v9.953
				C1754.819,273.954,1753.558,275.215,1752.002,275.215z"/>
		</g>
		<g>
			
				<linearGradient id="SVGID_00000116936111755636949600000001520607340555563954_" gradientUnits="userSpaceOnUse" x1="1740.1025" y1="304.7976" x2="1754.8193" y2="304.7976">
				<stop  offset="0" style="stop-color:#D1D7E0"/>
				<stop  offset="1" style="stop-color:#EBEBFF"/>
			</linearGradient>
			<path style="fill:url(#SVGID_00000116936111755636949600000001520607340555563954_);" d="M1752.002,312.591h-9.082
				c-1.556,0-2.817-1.261-2.817-2.817v-9.953c0-1.556,1.262-2.818,2.817-2.818h9.082c1.556,0,2.818,1.262,2.818,2.818v9.953
				C1754.819,311.33,1753.558,312.591,1752.002,312.591z"/>
		</g>
	</g>
	<g>
		
			<linearGradient id="SVGID_00000001629444622650402030000014780396004670562228_" gradientUnits="userSpaceOnUse" x1="1503.1641" y1="1104.5342" x2="1573.8309" y2="1104.5342">
			<stop  offset="0" style="stop-color:#D1D7E0"/>
			<stop  offset="1" style="stop-color:#EBEBFF"/>
		</linearGradient>
		<polygon style="fill:url(#SVGID_00000001629444622650402030000014780396004670562228_);" points="1519.725,1121.708 
			1573.831,1121.708 1557.271,1087.36 1503.164,1087.36 		"/>
		
			<linearGradient id="SVGID_00000161620835509982044310000009509661934129998755_" gradientUnits="userSpaceOnUse" x1="1477.8467" y1="1104.5342" x2="1507.2998" y2="1104.5342">
			<stop  offset="0" style="stop-color:#D1D7E0"/>
			<stop  offset="1" style="stop-color:#EBEBFF"/>
		</linearGradient>
		<polygon style="fill:url(#SVGID_00000161620835509982044310000009509661934129998755_);" points="1494.407,1121.708 
			1507.3,1121.708 1490.739,1087.36 1477.847,1087.36 		"/>
	</g>
</g>
</svg>
